<?xml version="1.0" encoding="UTF-8" standalone="no"?><svg xmlns="http://www.w3.org/2000/svg" xmlns:xlink="http://www.w3.org/1999/xlink" contentScriptType="application/ecmascript" contentStyleType="text/css" height="544px" preserveAspectRatio="none" style="width:648px;height:544px;background:#FFFFFF;" version="1.1" viewBox="0 0 648 544" width="648px" zoomAndPan="magnify"><defs><filter height="300%" id="fbrz75267xdoi" width="300%" x="-1" y="-1"><feGaussianBlur result="blurOut" stdDeviation="2.0"/><feColorMatrix in="blurOut" result="blurOut2" type="matrix" values="0 0 0 0 0 0 0 0 0 0 0 0 0 0 0 0 0 0 .4 0"/><feOffset dx="4.0" dy="4.0" in="blurOut2" result="blurOut3"/><feBlend in="SourceGraphic" in2="blurOut3" mode="normal"/></filter></defs><g><!--MD5=[5acaab5cabdad998d54697815ee6a98e]
cluster Shop--><rect fill="#FFFFFF" filter="url(#fbrz75267xdoi)" height="525.5" style="stroke:#000000;stroke-width:1.5;" width="410" x="119.5" y="7"/><text fill="#000000" font-family="sans-serif" font-size="14" font-weight="bold" lengthAdjust="spacing" textLength="36" x="306.5" y="23.5332">Shop</text><ellipse cx="295.6203" cy="60.8241" fill="#FEFECE" filter="url(#fbrz75267xdoi)" rx="77.1203" ry="17.8241" style="stroke:#A80036;stroke-width:1.5;"/><text fill="#000000" font-family="sans-serif" font-size="14" lengthAdjust="spacing" textLength="107" x="239.7783" y="65.1856">order by supplier</text><ellipse cx="295.5583" cy="221.9117" fill="#FEFECE" filter="url(#fbrz75267xdoi)" rx="100.0583" ry="22.4117" style="stroke:#A80036;stroke-width:1.5;"/><text fill="#000000" font-family="sans-serif" font-size="14" lengthAdjust="spacing" textLength="161" x="215.0583" y="225.6402">order from premium client</text><ellipse cx="295.3274" cy="382.994" fill="#FEFECE" filter="url(#fbrz75267xdoi)" rx="49.8274" ry="15.494" style="stroke:#A80036;stroke-width:1.5;"/><text fill="#000000" font-family="sans-serif" font-size="14" lengthAdjust="spacing" textLength="54" x="265.6067" y="387.4484">payment</text><ellipse cx="168.6985" cy="500.9517" fill="#FEFECE" filter="url(#fbrz75267xdoi)" rx="32.6985" ry="15.4517" style="stroke:#A80036;stroke-width:1.5;"/><text fill="#000000" font-family="sans-serif" font-size="14" lengthAdjust="spacing" textLength="30" x="153.6985" y="504.6802">cash</text><ellipse cx="295.4297" cy="501.0784" fill="#FEFECE" filter="url(#fbrz75267xdoi)" rx="59.4297" ry="15.5784" style="stroke:#A80036;stroke-width:1.5;"/><text fill="#000000" font-family="sans-serif" font-size="14" lengthAdjust="spacing" textLength="67" x="258.9297" y="505.595">credit card</text><ellipse cx="451.6463" cy="501.0942" fill="#FEFECE" filter="url(#fbrz75267xdoi)" rx="61.6463" ry="15.5942" style="stroke:#A80036;stroke-width:1.5;"/><text fill="#000000" font-family="sans-serif" font-size="14" lengthAdjust="spacing" textLength="70" x="413.6463" y="505.6108">on account</text><!--MD5=[2e0b88dcb29c53aa479c6fca69205452]
entity salesperson--><ellipse cx="64.5" cy="190" fill="#FEFECE" filter="url(#fbrz75267xdoi)" rx="8" ry="8" style="stroke:#A80036;stroke-width:1.5;"/><path d="M64.5,198 L64.5,225 M51.5,206 L77.5,206 M64.5,225 L51.5,240 M64.5,225 L77.5,240 " fill="none" filter="url(#fbrz75267xdoi)" style="stroke:#A80036;stroke-width:1.5;"/><text fill="#000000" font-family="sans-serif" font-size="14" lengthAdjust="spacing" textLength="77" x="26" y="260.0332">salesperson</text><!--MD5=[1fdb20baae2a071b9a7a35b9c52b42e8]
entity sales_manager--><ellipse cx="54.5" cy="29" fill="#FEFECE" filter="url(#fbrz75267xdoi)" rx="8" ry="8" style="stroke:#A80036;stroke-width:1.5;"/><path d="M54.5,37 L54.5,64 M41.5,45 L67.5,45 M54.5,64 L41.5,79 M54.5,64 L67.5,79 " fill="none" filter="url(#fbrz75267xdoi)" style="stroke:#A80036;stroke-width:1.5;"/><text fill="#000000" font-family="sans-serif" font-size="14" lengthAdjust="spacing" textLength="97" x="6" y="99.0332">sales_manager</text><!--MD5=[c3d854339130bdcaba51964c23bcd00a]
entity supplier--><ellipse cx="570.5" cy="29" fill="#FEFECE" filter="url(#fbrz75267xdoi)" rx="8" ry="8" style="stroke:#A80036;stroke-width:1.5;"/><path d="M570.5,37 L570.5,64 M557.5,45 L583.5,45 M570.5,64 L557.5,79 M570.5,64 L583.5,79 " fill="none" filter="url(#fbrz75267xdoi)" style="stroke:#A80036;stroke-width:1.5;"/><text fill="#000000" font-family="sans-serif" font-size="14" lengthAdjust="spacing" textLength="50" x="545.5" y="99.0332">supplier</text><!--MD5=[4a65e84059005d12693a083370a06717]
entity client--><ellipse cx="570.5" cy="351" fill="#FEFECE" filter="url(#fbrz75267xdoi)" rx="8" ry="8" style="stroke:#A80036;stroke-width:1.5;"/><path d="M570.5,359 L570.5,386 M557.5,367 L583.5,367 M570.5,386 L557.5,401 M570.5,386 L583.5,401 " fill="none" filter="url(#fbrz75267xdoi)" style="stroke:#A80036;stroke-width:1.5;"/><text fill="#000000" font-family="sans-serif" font-size="14" lengthAdjust="spacing" textLength="33" x="554" y="421.0332">client</text><!--MD5=[620966df1d8ee60c04824b19e9d13bd2]
entity premium_client--><ellipse cx="593.5" cy="190" fill="#FEFECE" filter="url(#fbrz75267xdoi)" rx="8" ry="8" style="stroke:#A80036;stroke-width:1.5;"/><path d="M593.5,198 L593.5,225 M580.5,206 L606.5,206 M593.5,225 L580.5,240 M593.5,225 L606.5,240 " fill="none" filter="url(#fbrz75267xdoi)" style="stroke:#A80036;stroke-width:1.5;"/><text fill="#000000" font-family="sans-serif" font-size="14" lengthAdjust="spacing" textLength="95" x="546" y="260.0332">premium_client</text><!--MD5=[6572e5dc266366d13aca3c0b37f27ba5]
link sales_manager to order by supplier--><path d="M103.45,61 C141.71,61 179.97,61 218.23,61 " fill="none" id="sales_manager-order by supplier" style="stroke:#A80036;stroke-width:1.0;"/><!--MD5=[59a3d2cec7b4c610d86f384d04433439]
link order by supplier to supplier--><path d="M372.58,61 C430.17,61 487.77,61 545.37,61 " fill="none" id="order by supplier-supplier" style="stroke:#A80036;stroke-width:1.0;"/><!--MD5=[2a668f934063c47fdef8010c4d1902b3]
link salesperson to order from premium client--><path d="M103.3,222 C133.96,222 164.61,222 195.27,222 " fill="none" id="salesperson-order from premium client" style="stroke:#A80036;stroke-width:1.0;"/><!--MD5=[b3e3e4b32b77ca9f7ae8c0ba020dfb7b]
link order from premium client to premium_client--><path d="M395.61,222 C445.73,222 495.84,222 545.96,222 " fill="none" id="order from premium client-premium_client" style="stroke:#A80036;stroke-width:1.0;"/><!--MD5=[40cd00d840bca63223fad4812f85dd4c]
link salesperson to payment--><path d="M103.11,251.75 C108.59,255.73 114.17,259.74 119.5,263.5 C175.21,302.74 242.32,347.15 275.25,368.77 " fill="none" id="salesperson-payment" style="stroke:#A80036;stroke-width:1.0;"/><!--MD5=[cef28ed289fe7c6cba77f245aeccb057]
link payment to client--><path d="M345.72,383 C415.09,383 484.45,383 553.82,383 " fill="none" id="payment-client" style="stroke:#A80036;stroke-width:1.0;"/><!--MD5=[c15a2f65ce72f8e3ff1b2d8be2f545ea]
link order by supplier to order from premium client--><path d="M295.5,79.02 C295.5,106.62 295.5,161.38 295.5,194.24 " fill="none" id="order by supplier-to-order from premium client" style="stroke:#A80036;stroke-width:1.0;stroke-dasharray:7.0,7.0;"/><polygon fill="#A80036" points="295.5,199.31,299.5,190.31,295.5,194.31,291.5,190.31,295.5,199.31" style="stroke:#A80036;stroke-width:1.0;"/><text fill="#000000" font-family="sans-serif" font-size="13" lengthAdjust="spacing" textLength="46" x="296.5" y="146.9951">extends</text><!--MD5=[87828d918dc24b7a8e10e5c9ce090a95]
link order from premium client to payment--><path d="M295.5,244.77 C295.5,275.68 295.5,331.84 295.5,361.84 " fill="none" id="order from premium client-to-payment" style="stroke:#A80036;stroke-width:1.0;stroke-dasharray:7.0,7.0;"/><polygon fill="#A80036" points="295.5,367.12,299.5,358.12,295.5,362.12,291.5,358.12,295.5,367.12" style="stroke:#A80036;stroke-width:1.0;"/><text fill="#000000" font-family="sans-serif" font-size="13" lengthAdjust="spacing" textLength="41" x="296.5" y="307.9951">includs</text><!--MD5=[d9f4db445a95e226d323c340fff4bbf1]
link sales_manager to salesperson--><path d="M57.05,102.53 C58.15,120.03 59.46,140.88 60.67,160.17 " fill="none" id="sales_manager-to-salesperson" style="stroke:#A80036;stroke-width:1.0;"/><polygon fill="none" points="67.67,159.86,61.94,180.26,53.7,160.74,67.67,159.86" style="stroke:#A80036;stroke-width:1.0;"/><!--MD5=[714b6afa603ef8d0cdd10958850bee7f]
link premium_client to client--><path d="M587.64,263.53 C585.11,281.03 582.09,301.88 579.3,321.17 " fill="none" id="premium_client-to-client" style="stroke:#A80036;stroke-width:1.0;"/><polygon fill="none" points="586.18,322.47,576.39,341.26,572.33,320.47,586.18,322.47" style="stroke:#A80036;stroke-width:1.0;"/><!--MD5=[bed0a3cc4a57d469bc2ac1b4ca92ce32]
reverse link payment to cash--><path d="M264.96,411.89 C239.01,435.6 202.88,468.6 183.02,486.74 " fill="none" id="payment-backto-cash" style="stroke:#A80036;stroke-width:1.0;"/><polygon fill="none" points="260.44,406.54,279.93,398.22,269.88,416.88,260.44,406.54" style="stroke:#A80036;stroke-width:1.0;"/><!--MD5=[a8b1c0c7de3fa98950d52fde127b3971]
reverse link payment to credit card--><path d="M295.5,418.88 C295.5,441.14 295.5,468.83 295.5,485.43 " fill="none" id="payment-backto-credit card" style="stroke:#A80036;stroke-width:1.0;"/><polygon fill="none" points="288.5,418.69,295.5,398.69,302.5,418.69,288.5,418.69" style="stroke:#A80036;stroke-width:1.0;"/><!--MD5=[92441d108f97cbff9f8fec140b8a0f91]
reverse link payment to on account--><path d="M330.08,409.71 C361.82,433.31 407.62,467.37 432.93,486.19 " fill="none" id="payment-backto-on account" style="stroke:#A80036;stroke-width:1.0;"/><polygon fill="none" points="325.57,415.09,313.7,397.53,333.93,403.85,325.57,415.09" style="stroke:#A80036;stroke-width:1.0;"/><!--MD5=[45504311b302a9268e70faef3068fc41]
@startuml
skinparam packageStyle rectangle
actor salesperson
actor sales_manager
actor supplier
actor client
actor premium_client
rectangle Shop {
    sales_manager -right- (order by supplier)
    (order by supplier) -right- supplier
    salesperson -right- (order from premium client)
    (order from premium client) -right- premium_client
    salesperson -right- (payment)
    (payment) -right- client
    (order by supplier) .down.> (order from premium client): extends
    (order from premium client) .down.> (payment): includs
    sales_manager -down-|> salesperson
    premium_client -down-|> client
    (cash) -up-|> (payment)
    (credit card) -up-|> (payment)
    (on account) -up-|> (payment)
}
@enduml

PlantUML version 1.2021.7(Sun May 23 14:40:07 CEST 2021)
(GPL source distribution)
Java Runtime: OpenJDK Runtime Environment
JVM: OpenJDK 64-Bit Server VM
Default Encoding: Cp1252
Language: de
Country: DE
--></g></svg>