<?xml version="1.0" encoding="UTF-8" standalone="no"?><svg xmlns="http://www.w3.org/2000/svg" xmlns:xlink="http://www.w3.org/1999/xlink" contentScriptType="application/ecmascript" contentStyleType="text/css" height="631px" preserveAspectRatio="none" style="width:541px;height:631px;background:#FFFFFF;" version="1.1" viewBox="0 0 541 631" width="541px" zoomAndPan="magnify"><defs><filter height="300%" id="f1l37d2l6klcrr" width="300%" x="-1" y="-1"><feGaussianBlur result="blurOut" stdDeviation="2.0"/><feColorMatrix in="blurOut" result="blurOut2" type="matrix" values="0 0 0 0 0 0 0 0 0 0 0 0 0 0 0 0 0 0 .4 0"/><feOffset dx="4.0" dy="4.0" in="blurOut2" result="blurOut3"/><feBlend in="SourceGraphic" in2="blurOut3" mode="normal"/></filter></defs><g><!--MD5=[ea4128e1b5db6200a10193b8015cde63]
entity interface--><ellipse cx="226" cy="131" fill="#FEFECE" filter="url(#f1l37d2l6klcrr)" rx="8" ry="8" style="stroke:#A80036;stroke-width:1.5;"/><text fill="#000000" font-family="sans-serif" font-size="14" lengthAdjust="spacing" textLength="55" x="198.5" y="162.5332">interface</text><ellipse cx="348.861" cy="21.4809" fill="#FEFECE" filter="url(#f1l37d2l6klcrr)" rx="48.361" ry="15.4809" style="stroke:#A80036;stroke-width:1.5;"/><text fill="#000000" font-family="sans-serif" font-size="14" lengthAdjust="spacing" textLength="52" x="320.6681" y="25.8128">Problem</text><ellipse cx="348.9169" cy="130.8834" fill="#FEFECE" filter="url(#f1l37d2l6klcrr)" rx="67.4169" ry="15.8834" style="stroke:#A80036;stroke-width:1.5;"/><text fill="#000000" font-family="sans-serif" font-size="14" lengthAdjust="spacing" textLength="80" x="305.9169" y="135.4">Specification</text><ellipse cx="383.9905" cy="248.3981" fill="#FEFECE" filter="url(#f1l37d2l6klcrr)" rx="104.9905" ry="23.3981" style="stroke:#A80036;stroke-width:1.5;"/><text fill="#000000" font-family="sans-serif" font-size="14" lengthAdjust="spacing" textLength="172" x="297.9905" y="252.1266">Requirements Specification</text><ellipse cx="251.0997" cy="378.4523" fill="#FEFECE" filter="url(#f1l37d2l6klcrr)" rx="42.5997" ry="15.4523" style="stroke:#A80036;stroke-width:1.5;"/><text fill="#000000" font-family="sans-serif" font-size="14" lengthAdjust="spacing" textLength="44" x="228.8355" y="382.2639">Design</text><ellipse cx="188.08" cy="487.6227" fill="#FEFECE" filter="url(#f1l37d2l6klcrr)" rx="66.08" ry="15.6227" style="stroke:#A80036;stroke-width:1.5;"/><text fill="#000000" font-family="sans-serif" font-size="14" lengthAdjust="spacing" textLength="76" x="147.08" y="492.1393">Sourcecode</text><ellipse cx="97.7698" cy="600.454" fill="#FEFECE" filter="url(#f1l37d2l6klcrr)" rx="85.2698" ry="19.454" style="stroke:#A80036;stroke-width:1.5;"/><text fill="#000000" font-family="sans-serif" font-size="14" lengthAdjust="spacing" textLength="127" x="34.2698" y="604.1825">Executable Program</text><ellipse cx="307.8909" cy="600.4517" fill="#FEFECE" filter="url(#f1l37d2l6klcrr)" rx="41.8909" ry="15.4517" style="stroke:#A80036;stroke-width:1.5;"/><text fill="#000000" font-family="sans-serif" font-size="14" lengthAdjust="spacing" textLength="43" x="286.3454" y="604.1948">Output</text><ellipse cx="69.1242" cy="317.6042" fill="#FEFECE" filter="url(#f1l37d2l6klcrr)" rx="63.1242" ry="15.6042" style="stroke:#A80036;stroke-width:1.5;"/><text fill="#000000" font-family="sans-serif" font-size="14" lengthAdjust="spacing" textLength="72" x="30.1242" y="322.1208">Test Result</text><!--MD5=[66c81d931077a77509ff4d7b32943d72]
link Problem to Specification--><path d="M349,37.45 C349,56.27 349,88.7 349,109.74 " fill="none" id="Problem-to-Specification" style="stroke:#A80036;stroke-width:1.0;"/><polygon fill="#A80036" points="349,114.83,353,105.83,349,109.83,345,105.83,349,114.83" style="stroke:#A80036;stroke-width:1.0;"/><text fill="#000000" font-family="sans-serif" font-size="13" lengthAdjust="spacing" textLength="45" x="350" y="81.4951">analyse</text><!--MD5=[53d91722b84d18ce48569a82278febf5]
link Specification to Requirements Specification--><path d="M353.58,147.1 C359.16,165.52 368.7,197.02 375.61,219.83 " fill="none" id="Specification-to-Requirements Specification" style="stroke:#A80036;stroke-width:1.0;"/><polygon fill="#A80036" points="377.13,224.84,378.3351,215.0651,375.6736,220.0568,370.682,217.3953,377.13,224.84" style="stroke:#A80036;stroke-width:1.0;"/><text fill="#000000" font-family="sans-serif" font-size="13" lengthAdjust="spacing" textLength="165" x="368" y="191.4951">identification of requirements</text><!--MD5=[28955300a1ca2d720a9565bebb2586bf]
link Requirements Specification to Design--><path d="M361.14,271.5 C335.05,296.61 292.93,337.15 269.05,360.13 " fill="none" id="Requirements Specification-to-Design" style="stroke:#A80036;stroke-width:1.0;"/><polygon fill="#A80036" points="265.37,363.67,274.6251,360.3022,268.9692,360.1993,269.0721,354.5434,265.37,363.67" style="stroke:#A80036;stroke-width:1.0;"/><text fill="#000000" font-family="sans-serif" font-size="13" lengthAdjust="spacing" textLength="38" x="331" y="322.9951">design</text><!--MD5=[0f59fd0ddc433a1c25c1d6cdee96b132]
link Design to Design--><path d="M285.26,369.18 C307.3,366.74 328.5,369.85 328.5,378.5 C328.5,386.47 310.48,389.74 290.4,388.29 " fill="none" id="Design-to-Design" style="stroke:#A80036;stroke-width:1.0;"/><polygon fill="#A80036" points="285.26,387.82,293.8559,392.6273,290.239,388.2778,294.5885,384.6609,285.26,387.82" style="stroke:#A80036;stroke-width:1.0;"/><text fill="#000000" font-family="sans-serif" font-size="13" lengthAdjust="spacing" textLength="31" x="334.5" y="383.9951">refine</text><!--MD5=[6d279c54c92cb5d7bbfcbcfb7cd3b842]
link Design to Sourcecode--><path d="M242.5,393.93 C231.32,412.92 211.65,446.34 199.25,467.4 " fill="none" id="Design-to-Sourcecode" style="stroke:#A80036;stroke-width:1.0;"/><polygon fill="#A80036" points="196.56,471.96,204.5759,466.2376,199.0988,467.6525,197.6839,462.1755,196.56,471.96" style="stroke:#A80036;stroke-width:1.0;"/><text fill="#000000" font-family="sans-serif" font-size="13" lengthAdjust="spacing" textLength="38" x="225" y="438.4951">coding</text><!--MD5=[6d476826f293ceb2005881fe78c48bf9]
link Sourcecode to Executable Program--><path d="M176.23,503.01 C160.98,521.82 134.23,554.82 116.31,576.92 " fill="none" id="Sourcecode-to-Executable Program" style="stroke:#A80036;stroke-width:1.0;"/><polygon fill="#A80036" points="113.07,580.91,121.8399,576.4279,116.2143,577.0224,115.6198,571.3969,113.07,580.91" style="stroke:#A80036;stroke-width:1.0;"/><text fill="#000000" font-family="sans-serif" font-size="13" lengthAdjust="spacing" textLength="45" x="153" y="547.4951">compile</text><!--MD5=[74cad33c32bea42e80e178605fb21165]
link Executable Program to Output--><path d="M183.72,600.5 C210.08,600.5 238.12,600.5 260.88,600.5 " fill="none" id="Executable Program-to-Output" style="stroke:#A80036;stroke-width:1.0;"/><polygon fill="#A80036" points="265.95,600.5,256.95,596.5,260.95,600.5,256.95,604.5,265.95,600.5" style="stroke:#A80036;stroke-width:1.0;"/><text fill="#000000" font-family="sans-serif" font-size="13" lengthAdjust="spacing" textLength="46" x="201.75" y="593.9951">execute</text><!--MD5=[0dd76c93499496c2eccf50900bd5135e]
reverse link Test Result to Executable Program--><path d="M71.04,338.24 C76.39,390.11 90.8,529.78 96.05,580.64 " fill="none" id="Test Result-backto-Executable Program" style="stroke:#A80036;stroke-width:1.0;"/><polygon fill="#A80036" points="70.52,333.21,67.4673,342.5738,71.0345,338.1835,75.4249,341.7506,70.52,333.21" style="stroke:#A80036;stroke-width:1.0;"/><text fill="#000000" font-family="sans-serif" font-size="13" lengthAdjust="spacing" textLength="39" x="83" y="438.4951">testing</text><!--MD5=[0026382b0fa3c8b0fcb101bfe99d8410]
reverse link interface to Test Result--><path d="M211.71,132.08 C183.44,133.07 120.37,139.6 89,177 C58.66,213.18 62.7,274.1 66.52,301.89 " fill="none" id="interface-backto-Test Result" style="stroke:#A80036;stroke-width:1.0;"/><polygon fill="#A80036" points="216.89,131.94,207.7902,128.1727,211.8917,132.0685,207.9958,136.17,216.89,131.94" style="stroke:#A80036;stroke-width:1.0;"/><text fill="#000000" font-family="sans-serif" font-size="13" lengthAdjust="spacing" textLength="38" x="90" y="191.4951">bug fix</text><!--MD5=[c5b345b84af19bdb941ef3fe0ce35e8a]
link interface to Specification--><path d="M235.13,131 C248.86,131 262.6,131 276.33,131 " fill="none" id="interface-to-Specification" style="stroke:#A80036;stroke-width:1.0;"/><polygon fill="#A80036" points="281.39,131,272.39,127,276.39,131,272.39,135,281.39,131" style="stroke:#A80036;stroke-width:1.0;"/><!--MD5=[bfb6333c1a3740423e0eed8ad5095d88]
link interface to Requirements Specification--><path d="M235.41,138.88 C257.44,154.98 313.24,195.77 349.84,222.53 " fill="none" id="interface-to-Requirements Specification" style="stroke:#A80036;stroke-width:1.0;"/><polygon fill="#A80036" points="354.2,225.72,349.2973,217.1781,350.1644,222.7681,344.5743,223.6352,354.2,225.72" style="stroke:#A80036;stroke-width:1.0;"/><!--MD5=[6179ae2816a0ca453f58457f79464d40]
link interface to Design--><path d="M226.83,140.17 C230.32,174.45 243.84,307.23 248.99,357.79 " fill="none" id="interface-to-Design" style="stroke:#A80036;stroke-width:1.0;"/><polygon fill="#A80036" points="249.52,362.99,252.5754,353.6271,249.007,358.0164,244.6176,354.4479,249.52,362.99" style="stroke:#A80036;stroke-width:1.0;"/><!--MD5=[f2a2d57c41513486e6fc69f8e50a5d03]
link interface to Sourcecode--><path d="M224.35,140.35 C218.49,170.31 198.68,275.32 191,363 C187.82,399.35 187.54,441.93 187.71,466.41 " fill="none" id="interface-to-Sourcecode" style="stroke:#A80036;stroke-width:1.0;"/><polygon fill="#A80036" points="187.76,471.64,191.6827,462.606,187.7171,466.6402,183.683,462.6746,187.76,471.64" style="stroke:#A80036;stroke-width:1.0;"/><!--MD5=[0dd06faacbadf81d69420ec933460db3]
@startuml
interface interface
(Problem) -down-> (Specification): analyse
(Specification) -down-> (Requirements Specification): identification of requirements
(Requirements Specification) -down-> (Design): design
(Design) -> (Design): refine
(Design) -down-> (Sourcecode): coding
(Sourcecode) -down-> (Executable Program): compile
(Executable Program) -right-> (Output): execute
(Executable Program) -left-> (Test Result): testing
(Test Result) -up-> interface: bug fix
interface -> (Specification)
interface -> (Requirements Specification)
interface -> (Design)
interface -> (Sourcecode)
@enduml

PlantUML version 1.2021.7(Sun May 23 14:40:07 CEST 2021)
(GPL source distribution)
Java Runtime: OpenJDK Runtime Environment
JVM: OpenJDK 64-Bit Server VM
Default Encoding: Cp1252
Language: de
Country: DE
--></g></svg>