<?xml version="1.0" encoding="UTF-8" standalone="no"?><svg xmlns="http://www.w3.org/2000/svg" xmlns:xlink="http://www.w3.org/1999/xlink" contentScriptType="application/ecmascript" contentStyleType="text/css" height="400px" preserveAspectRatio="none" style="width:206px;height:400px;background:#FFFFFF;" version="1.1" viewBox="0 0 206 400" width="206px" zoomAndPan="magnify"><defs><filter height="300%" id="foy0bp62h71oa" width="300%" x="-1" y="-1"><feGaussianBlur result="blurOut" stdDeviation="2.0"/><feColorMatrix in="blurOut" result="blurOut2" type="matrix" values="0 0 0 0 0 0 0 0 0 0 0 0 0 0 0 0 0 0 .4 0"/><feOffset dx="4.0" dy="4.0" in="blurOut2" result="blurOut3"/><feBlend in="SourceGraphic" in2="blurOut3" mode="normal"/></filter></defs><g><rect fill="#FFFFFF" filter="url(#foy0bp62h71oa)" height="372.6328" style="stroke:#000000;stroke-width:2.0;" width="178.5" x="11" y="11"/><text fill="#000000" font-family="sans-serif" font-size="14" lengthAdjust="spacing" textLength="99" x="50.75" y="27.5332">Pricecalculation</text><ellipse cx="96.5" cy="58.6094" fill="#000000" filter="url(#foy0bp62h71oa)" rx="10" ry="10" style="stroke:none;stroke-width:1.0;"/><rect fill="#FEFECE" filter="url(#foy0bp62h71oa)" height="35.0938" rx="12.5" ry="12.5" style="stroke:#A80036;stroke-width:1.5;" width="122" x="35.5" y="152.5273"/><text fill="#000000" font-family="sans-serif" font-size="12" lengthAdjust="spacing" textLength="102" x="45.5" y="174.9844">price = price * 0.97</text><polygon fill="#FEFECE" filter="url(#foy0bp62h71oa)" points="66.5,103.6094,126.5,103.6094,138.5,115.6094,126.5,127.6094,66.5,127.6094,54.5,115.6094,66.5,103.6094" style="stroke:#A80036;stroke-width:1.5;"/><text fill="#000000" font-family="sans-serif" font-size="11" lengthAdjust="spacing" textLength="18" x="100.5" y="139.0283">yes</text><text fill="#000000" font-family="sans-serif" font-size="11" lengthAdjust="spacing" textLength="60" x="66.5" y="120.1104">price &gt; 100€</text><text fill="#000000" font-family="sans-serif" font-size="11" lengthAdjust="spacing" textLength="12" x="138.5" y="113.1924">no</text><polygon fill="#FEFECE" filter="url(#foy0bp62h71oa)" points="96.5,212.5391,108.5,224.5391,96.5,236.5391,84.5,224.5391,96.5,212.5391" style="stroke:#A80036;stroke-width:1.5;"/><rect fill="#FEFECE" filter="url(#foy0bp62h71oa)" height="35.0938" rx="12.5" ry="12.5" style="stroke:#A80036;stroke-width:1.5;" width="151" x="21" y="271.5391"/><text fill="#000000" font-family="sans-serif" font-size="12" lengthAdjust="spacing" textLength="128" x="34" y="293.9961">final price = price * 1.19</text><ellipse cx="96.5" cy="352.6328" fill="#FFFFFF" filter="url(#foy0bp62h71oa)" rx="11" ry="11" style="stroke:#000000;stroke-width:1.0;"/><ellipse cx="96.5" cy="352.6328" fill="#000000" rx="6" ry="6" style="stroke:#7F7F7F;stroke-width:1.0;"/><line style="stroke:#A80036;stroke-width:1.5;" x1="96.5" x2="96.5" y1="127.6094" y2="152.5273"/><polygon fill="#A80036" points="92.5,142.5273,96.5,152.5273,100.5,142.5273,96.5,146.5273" style="stroke:#A80036;stroke-width:1.0;"/><line style="stroke:#A80036;stroke-width:1.5;" x1="138.5" x2="167.5" y1="115.6094" y2="115.6094"/><polygon fill="#A80036" points="163.5,160.0742,167.5,170.0742,171.5,160.0742,167.5,164.0742" style="stroke:#A80036;stroke-width:1.5;"/><line style="stroke:#A80036;stroke-width:1.5;" x1="167.5" x2="167.5" y1="115.6094" y2="224.5391"/><line style="stroke:#A80036;stroke-width:1.5;" x1="167.5" x2="108.5" y1="224.5391" y2="224.5391"/><polygon fill="#A80036" points="118.5,220.5391,108.5,224.5391,118.5,228.5391,114.5,224.5391" style="stroke:#A80036;stroke-width:1.0;"/><line style="stroke:#A80036;stroke-width:1.5;" x1="96.5" x2="96.5" y1="187.6211" y2="212.5391"/><polygon fill="#A80036" points="92.5,202.5391,96.5,212.5391,100.5,202.5391,96.5,206.5391" style="stroke:#A80036;stroke-width:1.0;"/><line style="stroke:#A80036;stroke-width:1.5;" x1="96.5" x2="96.5" y1="68.6094" y2="103.6094"/><polygon fill="#A80036" points="92.5,93.6094,96.5,103.6094,100.5,93.6094,96.5,97.6094" style="stroke:#A80036;stroke-width:1.0;"/><line style="stroke:#A80036;stroke-width:1.5;" x1="96.5" x2="96.5" y1="236.5391" y2="271.5391"/><polygon fill="#A80036" points="92.5,261.5391,96.5,271.5391,100.5,261.5391,96.5,265.5391" style="stroke:#A80036;stroke-width:1.0;"/><line style="stroke:#A80036;stroke-width:1.5;" x1="96.5" x2="96.5" y1="306.6328" y2="341.6328"/><polygon fill="#A80036" points="92.5,331.6328,96.5,341.6328,100.5,331.6328,96.5,335.6328" style="stroke:#A80036;stroke-width:1.0;"/><!--MD5=[4254b07c65c48aa1c24acf9326e88e8b]
@startuml
rectangle Pricecalculation {
    !pragma useVerticalIf on 
    start
    if(price > 100€) then (yes)
     :price = price * 0.97;
    else (no)
    endif
     : final price = price * 1.19;
    stop
}
@enduml

PlantUML version 1.2021.7(Sun May 23 14:40:07 CEST 2021)
(GPL source distribution)
Java Runtime: OpenJDK Runtime Environment
JVM: OpenJDK 64-Bit Server VM
Default Encoding: Cp1252
Language: de
Country: DE
--></g></svg>