<?xml version="1.0" encoding="UTF-8" standalone="no"?><svg xmlns="http://www.w3.org/2000/svg" xmlns:xlink="http://www.w3.org/1999/xlink" contentScriptType="application/ecmascript" contentStyleType="text/css" height="512px" preserveAspectRatio="none" style="width:275px;height:512px;background:#FFFFFF;" version="1.1" viewBox="0 0 275 512" width="275px" zoomAndPan="magnify"><defs><filter height="300%" id="fjcby8v2zemu1" width="300%" x="-1" y="-1"><feGaussianBlur result="blurOut" stdDeviation="2.0"/><feColorMatrix in="blurOut" result="blurOut2" type="matrix" values="0 0 0 0 0 0 0 0 0 0 0 0 0 0 0 0 0 0 .4 0"/><feOffset dx="4.0" dy="4.0" in="blurOut2" result="blurOut3"/><feBlend in="SourceGraphic" in2="blurOut3" mode="normal"/></filter></defs><g><!--MD5=[4d37ff7ba0ceae5cd2f46bdb37209993]
class Bill--><rect codeLine="1" fill="#FEFECE" filter="url(#fjcby8v2zemu1)" height="269.375" id="Bill" style="stroke:#A80036;stroke-width:1.5;" width="254" x="7" y="7"/><ellipse cx="121.25" cy="23" fill="#ADD1B2" rx="11" ry="11" style="stroke:#A80036;stroke-width:1.0;"/><path d="M124.0156,18.875 Q124.1719,18.6563 124.3594,18.5469 Q124.5469,18.4375 124.7656,18.4375 Q125.1406,18.4375 125.375,18.7031 Q125.6094,18.9531 125.6094,19.5625 L125.6094,21.0156 Q125.6094,21.625 125.375,21.8906 Q125.1406,22.1563 124.7656,22.1563 Q124.4219,22.1563 124.2188,21.9531 Q124.0156,21.7656 123.9063,21.25 Q123.8594,20.8906 123.6719,20.7031 Q123.3438,20.3281 122.7344,20.1094 Q122.125,19.8906 121.5,19.8906 Q120.7344,19.8906 120.0938,20.2188 Q119.4688,20.5469 118.9688,21.2969 Q118.4844,22.0469 118.4844,23.0781 L118.4844,24.1719 Q118.4844,25.4063 119.375,26.2344 Q120.2656,27.0469 121.8594,27.0469 Q122.7969,27.0469 123.4531,26.7969 Q123.8438,26.6406 124.2656,26.2031 Q124.5313,25.9375 124.6719,25.8594 Q124.8281,25.7813 125.0313,25.7813 Q125.3594,25.7813 125.6094,26.0469 Q125.875,26.2969 125.875,26.6406 Q125.875,26.9844 125.5313,27.3906 Q125.0313,27.9688 124.2344,28.2969 Q123.1563,28.75 121.8594,28.75 Q120.3438,28.75 119.1406,28.125 Q118.1563,27.625 117.4688,26.5625 Q116.7813,25.4844 116.7813,24.2031 L116.7813,23.0469 Q116.7813,21.7188 117.3906,20.5781 Q118.0156,19.4219 119.1094,18.8125 Q120.2031,18.1875 121.4375,18.1875 Q122.1719,18.1875 122.8125,18.3594 Q123.4688,18.5156 124.0156,18.875 Z " fill="#000000"/><text fill="#000000" font-family="sans-serif" font-size="12" lengthAdjust="spacing" textLength="17" x="141.75" y="27.9102">Bill</text><line style="stroke:#A80036;stroke-width:1.5;" x1="8" x2="260" y1="39" y2="39"/><ellipse cx="18" cy="50" rx="3" ry="3" style="stroke:#038048;stroke-width:1.0;fill:none;"/><text fill="#000000" font-family="sans-serif" font-size="11" lengthAdjust="spacing" textLength="70" x="27" y="54.4189">double amount</text><ellipse cx="18" cy="63.8359" rx="3" ry="3" style="stroke:#038048;stroke-width:1.0;fill:none;"/><text fill="#000000" font-family="sans-serif" font-size="11" lengthAdjust="spacing" textLength="76" x="27" y="68.2549">double discount</text><ellipse cx="18" cy="77.6719" rx="3" ry="3" style="stroke:#038048;stroke-width:1.0;fill:none;"/><text fill="#000000" font-family="sans-serif" font-size="11" lengthAdjust="spacing" textLength="50" x="27" y="82.0908">double tax</text><ellipse cx="18" cy="91.5078" rx="3" ry="3" style="stroke:#038048;stroke-width:1.0;fill:none;"/><text fill="#000000" font-family="sans-serif" font-size="11" lengthAdjust="spacing" textLength="84" x="27" y="95.9268">Client billReceiver</text><line style="stroke:#A80036;stroke-width:1.5;" x1="8" x2="260" y1="102.3438" y2="102.3438"/><ellipse cx="18" cy="113.3438" fill="#84BE84" rx="3" ry="3" style="stroke:#038048;stroke-width:1.0;"/><text fill="#000000" font-family="sans-serif" font-size="11" lengthAdjust="spacing" textLength="67" x="27" y="117.7627">«create» Bill()</text><ellipse cx="18" cy="127.1797" fill="#84BE84" rx="3" ry="3" style="stroke:#038048;stroke-width:1.0;"/><text fill="#000000" font-family="sans-serif" font-size="11" lengthAdjust="spacing" textLength="210" x="27" y="131.5986">void setDiscount(final double newDiscount)</text><ellipse cx="18" cy="141.0156" fill="#84BE84" rx="3" ry="3" style="stroke:#038048;stroke-width:1.0;"/><text fill="#000000" font-family="sans-serif" font-size="11" lengthAdjust="spacing" textLength="228" x="27" y="145.4346">void addInvoice(int quantity, double singlePrice)</text><ellipse cx="18" cy="154.8516" fill="#84BE84" rx="3" ry="3" style="stroke:#038048;stroke-width:1.0;"/><text fill="#000000" font-family="sans-serif" font-size="11" lengthAdjust="spacing" textLength="172" x="27" y="159.2705">void setInvoice(final Client receiver)</text><ellipse cx="18" cy="168.6875" fill="#84BE84" rx="3" ry="3" style="stroke:#038048;stroke-width:1.0;"/><text fill="#000000" font-family="sans-serif" font-size="11" lengthAdjust="spacing" textLength="162" x="27" y="173.1064">void setTax(final double newTax)</text><ellipse cx="18" cy="182.5234" fill="#84BE84" rx="3" ry="3" style="stroke:#038048;stroke-width:1.0;"/><text fill="#000000" font-family="sans-serif" font-size="11" lengthAdjust="spacing" textLength="112" x="27" y="186.9424">void getBillInformation()</text><ellipse cx="18" cy="196.3594" fill="#84BE84" rx="3" ry="3" style="stroke:#038048;stroke-width:1.0;"/><text fill="#000000" font-family="sans-serif" font-size="11" lengthAdjust="spacing" textLength="100" x="27" y="200.7783">double getDiscount()</text><ellipse cx="18" cy="210.1953" fill="#84BE84" rx="3" ry="3" style="stroke:#038048;stroke-width:1.0;"/><text fill="#000000" font-family="sans-serif" font-size="11" lengthAdjust="spacing" textLength="76" x="27" y="214.6143">double getTax()</text><ellipse cx="18" cy="224.0313" fill="#84BE84" rx="3" ry="3" style="stroke:#038048;stroke-width:1.0;"/><text fill="#000000" font-family="sans-serif" font-size="11" lengthAdjust="spacing" textLength="95" x="27" y="228.4502">double getAmount()</text><ellipse cx="18" cy="237.8672" fill="#84BE84" rx="3" ry="3" style="stroke:#038048;stroke-width:1.0;"/><text fill="#000000" font-family="sans-serif" font-size="11" lengthAdjust="spacing" textLength="103" x="27" y="242.2861">double calcNetPrice()</text><ellipse cx="18" cy="251.7031" fill="#84BE84" rx="3" ry="3" style="stroke:#038048;stroke-width:1.0;"/><text fill="#000000" font-family="sans-serif" font-size="11" lengthAdjust="spacing" textLength="100" x="27" y="256.1221">double totalAmount()</text><ellipse cx="18" cy="265.5391" fill="#84BE84" rx="3" ry="3" style="stroke:#038048;stroke-width:1.0;"/><text fill="#000000" font-family="sans-serif" font-size="11" lengthAdjust="spacing" textLength="108" x="27" y="269.958">Client getBillReceiver()</text><!--MD5=[ed6624c6556d5e7b1bd23032162d20b7]
class Client--><rect codeLine="20" fill="#FEFECE" filter="url(#fjcby8v2zemu1)" height="144.8516" id="Client" style="stroke:#A80036;stroke-width:1.5;" width="240" x="14" y="354"/><ellipse cx="113.75" cy="370" fill="#ADD1B2" rx="11" ry="11" style="stroke:#A80036;stroke-width:1.0;"/><path d="M116.5156,365.875 Q116.6719,365.6563 116.8594,365.5469 Q117.0469,365.4375 117.2656,365.4375 Q117.6406,365.4375 117.875,365.7031 Q118.1094,365.9531 118.1094,366.5625 L118.1094,368.0156 Q118.1094,368.625 117.875,368.8906 Q117.6406,369.1563 117.2656,369.1563 Q116.9219,369.1563 116.7188,368.9531 Q116.5156,368.7656 116.4063,368.25 Q116.3594,367.8906 116.1719,367.7031 Q115.8438,367.3281 115.2344,367.1094 Q114.625,366.8906 114,366.8906 Q113.2344,366.8906 112.5938,367.2188 Q111.9688,367.5469 111.4688,368.2969 Q110.9844,369.0469 110.9844,370.0781 L110.9844,371.1719 Q110.9844,372.4063 111.875,373.2344 Q112.7656,374.0469 114.3594,374.0469 Q115.2969,374.0469 115.9531,373.7969 Q116.3438,373.6406 116.7656,373.2031 Q117.0313,372.9375 117.1719,372.8594 Q117.3281,372.7813 117.5313,372.7813 Q117.8594,372.7813 118.1094,373.0469 Q118.375,373.2969 118.375,373.6406 Q118.375,373.9844 118.0313,374.3906 Q117.5313,374.9688 116.7344,375.2969 Q115.6563,375.75 114.3594,375.75 Q112.8438,375.75 111.6406,375.125 Q110.6563,374.625 109.9688,373.5625 Q109.2813,372.4844 109.2813,371.2031 L109.2813,370.0469 Q109.2813,368.7188 109.8906,367.5781 Q110.5156,366.4219 111.6094,365.8125 Q112.7031,365.1875 113.9375,365.1875 Q114.6719,365.1875 115.3125,365.3594 Q115.9688,365.5156 116.5156,365.875 Z " fill="#000000"/><text fill="#000000" font-family="sans-serif" font-size="12" lengthAdjust="spacing" textLength="32" x="134.25" y="374.9102">Client</text><line style="stroke:#A80036;stroke-width:1.5;" x1="15" x2="253" y1="386" y2="386"/><ellipse cx="25" cy="397" rx="3" ry="3" style="stroke:#038048;stroke-width:1.0;fill:none;"/><text fill="#000000" font-family="sans-serif" font-size="11" lengthAdjust="spacing" textLength="57" x="34" y="401.4189">String name</text><ellipse cx="25" cy="410.8359" rx="3" ry="3" style="stroke:#038048;stroke-width:1.0;fill:none;"/><text fill="#000000" font-family="sans-serif" font-size="11" lengthAdjust="spacing" textLength="71" x="34" y="415.2549">String address</text><line style="stroke:#A80036;stroke-width:1.5;" x1="15" x2="253" y1="421.6719" y2="421.6719"/><ellipse cx="25" cy="432.6719" fill="#84BE84" rx="3" ry="3" style="stroke:#038048;stroke-width:1.0;"/><text fill="#000000" font-family="sans-serif" font-size="11" lengthAdjust="spacing" textLength="214" x="34" y="437.0908">«create» Client(String name, String address)</text><ellipse cx="25" cy="446.5078" fill="#84BE84" rx="3" ry="3" style="stroke:#038048;stroke-width:1.0;"/><text fill="#000000" font-family="sans-serif" font-size="11" lengthAdjust="spacing" textLength="153" x="34" y="450.9268">void setName(String newName)</text><ellipse cx="25" cy="460.3438" fill="#84BE84" rx="3" ry="3" style="stroke:#038048;stroke-width:1.0;"/><text fill="#000000" font-family="sans-serif" font-size="11" lengthAdjust="spacing" textLength="183" x="34" y="464.7627">void setAddress(String newAddress)</text><ellipse cx="25" cy="474.1797" fill="#84BE84" rx="3" ry="3" style="stroke:#038048;stroke-width:1.0;"/><text fill="#000000" font-family="sans-serif" font-size="11" lengthAdjust="spacing" textLength="81" x="34" y="478.5986">String getName()</text><ellipse cx="25" cy="488.0156" fill="#84BE84" rx="3" ry="3" style="stroke:#038048;stroke-width:1.0;"/><text fill="#000000" font-family="sans-serif" font-size="11" lengthAdjust="spacing" textLength="96" x="34" y="492.4346">String getAddress()</text><!--MD5=[2657ae58d87ea75ad579d27853d5ad3d]
link Bill to Client--><path codeLine="30" d="M134,289.31 C134,306.8 134,341.7 134,341.7 " fill="none" id="Bill-Client" style="stroke:#A80036;stroke-width:1.0;"/><polygon fill="#A80036" points="134,353.7,138,347.7,134,341.7,130,347.7,134,353.7" style="stroke:#A80036;stroke-width:1.0;"/><path d="M130,281.13 L138,289.13 M138,281.13 L130,289.13 " fill="none" style="stroke:#A80036;stroke-width:1.0;"/><text fill="#000000" font-family="sans-serif" font-size="13" lengthAdjust="spacing" textLength="65" x="135" y="320.4951">billReceiver</text><text fill="#000000" font-family="sans-serif" font-size="13" lengthAdjust="spacing" textLength="5" x="128.8555" y="297.8702">*</text><text fill="#000000" font-family="sans-serif" font-size="13" lengthAdjust="spacing" textLength="7" x="126.6555" y="343.266">1</text><!--MD5=[856fb643094b7e74706bca3f42505c10]
@startuml
class Bill {
    + double amount
    + double discount
    + double tax
    + Client billReceiver
    + <<create>> Bill()
    + void setDiscount(final double newDiscount)
    + void addInvoice(int quantity, double singlePrice)
    + void setInvoice(final Client receiver)
    + void setTax(final double newTax)
    + void getBillInformation()
    + double getDiscount()
    + double getTax()
    + double getAmount()
    + double calcNetPrice()
    + double totalAmount()
    + Client getBillReceiver()
}

class Client {
    + String name
    + String address
    + <<create>> Client(String name, String address)
    + void setName(String newName)
    + void setAddress(String newAddress)
    + String getName()
    + String getAddress()
}

Bill "*" x- -* "1" Client : billReceiver
@enduml

PlantUML version 1.2021.7(Sun May 23 14:40:07 CEST 2021)
(GPL source distribution)
Java Runtime: OpenJDK Runtime Environment
JVM: OpenJDK 64-Bit Server VM
Default Encoding: Cp1252
Language: de
Country: DE
--></g></svg>